<mxfile host="app.diagrams.net" modified="2021-12-11T04:45:33.795Z" agent="5.0 (X11)" etag="veoBrzrrCU_dJy1Cj7un" version="15.9.4" type="github">
  <diagram id="xH8kfB0Xk62YLJ0sF7xA" name="Page-1">
    <mxGraphModel dx="1346" dy="765" grid="1" gridSize="10" guides="1" tooltips="1" connect="1" arrows="1" fold="1" page="1" pageScale="1" pageWidth="850" pageHeight="1100" math="0" shadow="0">
      <root>
        <mxCell id="0" />
        <mxCell id="1" parent="0" />
        <mxCell id="dv8xncICuxNhniZZaGz1-1" value="Sno" style="ellipse;whiteSpace=wrap;html=1;" vertex="1" parent="1">
          <mxGeometry x="60" y="110" width="120" height="80" as="geometry" />
        </mxCell>
        <mxCell id="dv8xncICuxNhniZZaGz1-2" value="sname" style="ellipse;whiteSpace=wrap;html=1;" vertex="1" parent="1">
          <mxGeometry x="390" y="110" width="120" height="80" as="geometry" />
        </mxCell>
        <mxCell id="dv8xncICuxNhniZZaGz1-3" value="ssex" style="ellipse;whiteSpace=wrap;html=1;" vertex="1" parent="1">
          <mxGeometry x="540" y="110" width="120" height="80" as="geometry" />
        </mxCell>
        <mxCell id="dv8xncICuxNhniZZaGz1-4" value="sage" style="ellipse;whiteSpace=wrap;html=1;" vertex="1" parent="1">
          <mxGeometry x="670" y="110" width="120" height="80" as="geometry" />
        </mxCell>
        <mxCell id="dv8xncICuxNhniZZaGz1-5" value="Sdept" style="ellipse;whiteSpace=wrap;html=1;" vertex="1" parent="1">
          <mxGeometry x="240" y="110" width="120" height="80" as="geometry" />
        </mxCell>
        <mxCell id="dv8xncICuxNhniZZaGz1-8" value="学生" style="whiteSpace=wrap;html=1;aspect=fixed;" vertex="1" parent="1">
          <mxGeometry x="410" y="270" width="110" height="110" as="geometry" />
        </mxCell>
        <mxCell id="dv8xncICuxNhniZZaGz1-11" value="" style="endArrow=classic;startArrow=classic;html=1;rounded=0;exitX=0.5;exitY=0;exitDx=0;exitDy=0;entryX=0.436;entryY=1.009;entryDx=0;entryDy=0;entryPerimeter=0;" edge="1" parent="1" source="dv8xncICuxNhniZZaGz1-17" target="dv8xncICuxNhniZZaGz1-8">
          <mxGeometry width="50" height="50" relative="1" as="geometry">
            <mxPoint x="340" y="410" as="sourcePoint" />
            <mxPoint x="460" y="390" as="targetPoint" />
          </mxGeometry>
        </mxCell>
        <mxCell id="dv8xncICuxNhniZZaGz1-12" value="" style="shape=link;html=1;rounded=0;entryX=0;entryY=0;entryDx=0;entryDy=0;" edge="1" parent="1" target="dv8xncICuxNhniZZaGz1-8">
          <mxGeometry width="100" relative="1" as="geometry">
            <mxPoint x="150" y="180" as="sourcePoint" />
            <mxPoint x="250" y="180" as="targetPoint" />
          </mxGeometry>
        </mxCell>
        <mxCell id="dv8xncICuxNhniZZaGz1-13" value="" style="shape=link;html=1;rounded=0;exitX=1;exitY=1;exitDx=0;exitDy=0;entryX=0.1;entryY=-0.025;entryDx=0;entryDy=0;entryPerimeter=0;" edge="1" parent="1" source="dv8xncICuxNhniZZaGz1-5" target="dv8xncICuxNhniZZaGz1-8">
          <mxGeometry width="100" relative="1" as="geometry">
            <mxPoint x="530" y="390" as="sourcePoint" />
            <mxPoint x="630" y="390" as="targetPoint" />
          </mxGeometry>
        </mxCell>
        <mxCell id="dv8xncICuxNhniZZaGz1-14" value="" style="shape=link;html=1;rounded=0;entryX=0.575;entryY=1;entryDx=0;entryDy=0;entryPerimeter=0;" edge="1" parent="1" target="dv8xncICuxNhniZZaGz1-2">
          <mxGeometry width="100" relative="1" as="geometry">
            <mxPoint x="420" y="270" as="sourcePoint" />
            <mxPoint x="630" y="390" as="targetPoint" />
          </mxGeometry>
        </mxCell>
        <mxCell id="dv8xncICuxNhniZZaGz1-15" value="" style="shape=link;html=1;rounded=0;entryX=0.567;entryY=1.013;entryDx=0;entryDy=0;entryPerimeter=0;" edge="1" parent="1" target="dv8xncICuxNhniZZaGz1-3">
          <mxGeometry width="100" relative="1" as="geometry">
            <mxPoint x="430" y="270" as="sourcePoint" />
            <mxPoint x="630" y="390" as="targetPoint" />
          </mxGeometry>
        </mxCell>
        <mxCell id="dv8xncICuxNhniZZaGz1-16" value="" style="shape=link;html=1;rounded=0;entryX=0.5;entryY=1;entryDx=0;entryDy=0;exitX=0.25;exitY=0;exitDx=0;exitDy=0;" edge="1" parent="1" source="dv8xncICuxNhniZZaGz1-8" target="dv8xncICuxNhniZZaGz1-4">
          <mxGeometry width="100" relative="1" as="geometry">
            <mxPoint x="530" y="390" as="sourcePoint" />
            <mxPoint x="630" y="390" as="targetPoint" />
          </mxGeometry>
        </mxCell>
        <mxCell id="dv8xncICuxNhniZZaGz1-17" value="选课" style="rhombus;whiteSpace=wrap;html=1;" vertex="1" parent="1">
          <mxGeometry x="387.5" y="435" width="145" height="130" as="geometry" />
        </mxCell>
        <mxCell id="dv8xncICuxNhniZZaGz1-20" value="Grade" style="ellipse;whiteSpace=wrap;html=1;" vertex="1" parent="1">
          <mxGeometry x="140" y="460" width="130" height="80" as="geometry" />
        </mxCell>
        <mxCell id="dv8xncICuxNhniZZaGz1-24" value="" style="endArrow=none;html=1;rounded=0;exitX=0;exitY=0.5;exitDx=0;exitDy=0;entryX=1;entryY=0.5;entryDx=0;entryDy=0;" edge="1" parent="1" source="dv8xncICuxNhniZZaGz1-17" target="dv8xncICuxNhniZZaGz1-20">
          <mxGeometry width="50" height="50" relative="1" as="geometry">
            <mxPoint x="550" y="420" as="sourcePoint" />
            <mxPoint x="600" y="370" as="targetPoint" />
          </mxGeometry>
        </mxCell>
        <mxCell id="dv8xncICuxNhniZZaGz1-26" value="" style="endArrow=classic;startArrow=classic;html=1;rounded=0;exitX=1;exitY=0.5;exitDx=0;exitDy=0;" edge="1" parent="1" source="dv8xncICuxNhniZZaGz1-17" target="dv8xncICuxNhniZZaGz1-27">
          <mxGeometry width="50" height="50" relative="1" as="geometry">
            <mxPoint x="550" y="420" as="sourcePoint" />
            <mxPoint x="600" y="370" as="targetPoint" />
          </mxGeometry>
        </mxCell>
        <mxCell id="dv8xncICuxNhniZZaGz1-27" value="课程" style="whiteSpace=wrap;html=1;aspect=fixed;" vertex="1" parent="1">
          <mxGeometry x="600" y="440" width="120" height="120" as="geometry" />
        </mxCell>
        <mxCell id="dv8xncICuxNhniZZaGz1-28" value="cno" style="ellipse;whiteSpace=wrap;html=1;" vertex="1" parent="1">
          <mxGeometry x="365" y="690" width="120" height="80" as="geometry" />
        </mxCell>
        <mxCell id="dv8xncICuxNhniZZaGz1-29" value="cname" style="ellipse;whiteSpace=wrap;html=1;" vertex="1" parent="1">
          <mxGeometry x="560" y="660" width="120" height="80" as="geometry" />
        </mxCell>
        <mxCell id="dv8xncICuxNhniZZaGz1-30" value="ccredit" style="ellipse;whiteSpace=wrap;html=1;" vertex="1" parent="1">
          <mxGeometry x="730" y="630" width="120" height="80" as="geometry" />
        </mxCell>
        <mxCell id="dv8xncICuxNhniZZaGz1-31" value="" style="endArrow=none;html=1;rounded=0;exitX=0.45;exitY=1;exitDx=0;exitDy=0;exitPerimeter=0;entryX=0.6;entryY=0.025;entryDx=0;entryDy=0;entryPerimeter=0;" edge="1" parent="1" source="dv8xncICuxNhniZZaGz1-27" target="dv8xncICuxNhniZZaGz1-28">
          <mxGeometry width="50" height="50" relative="1" as="geometry">
            <mxPoint x="550" y="420" as="sourcePoint" />
            <mxPoint x="600" y="370" as="targetPoint" />
          </mxGeometry>
        </mxCell>
        <mxCell id="dv8xncICuxNhniZZaGz1-32" value="" style="endArrow=none;html=1;rounded=0;entryX=0.5;entryY=1;entryDx=0;entryDy=0;" edge="1" parent="1" source="dv8xncICuxNhniZZaGz1-29" target="dv8xncICuxNhniZZaGz1-27">
          <mxGeometry width="50" height="50" relative="1" as="geometry">
            <mxPoint x="550" y="420" as="sourcePoint" />
            <mxPoint x="600" y="370" as="targetPoint" />
          </mxGeometry>
        </mxCell>
        <mxCell id="dv8xncICuxNhniZZaGz1-33" value="" style="endArrow=none;html=1;rounded=0;entryX=0.5;entryY=1;entryDx=0;entryDy=0;" edge="1" parent="1" source="dv8xncICuxNhniZZaGz1-30" target="dv8xncICuxNhniZZaGz1-27">
          <mxGeometry width="50" height="50" relative="1" as="geometry">
            <mxPoint x="550" y="420" as="sourcePoint" />
            <mxPoint x="600" y="370" as="targetPoint" />
          </mxGeometry>
        </mxCell>
      </root>
    </mxGraphModel>
  </diagram>
</mxfile>
